<?xml version="1.0" standalone="no"?>
<!DOCTYPE svg PUBLIC "-//W3C//DTD SVG 20010904//EN"
 "http://www.w3.org/TR/2001/REC-SVG-20010904/DTD/svg10.dtd">
<svg version="1.0" xmlns="http://www.w3.org/2000/svg"
 width="500.000000pt" height="500.000000pt" viewBox="0 0 500.000000 500.000000"
 preserveAspectRatio="xMidYMid meet">
<metadata>
Created by potrace 1.14, written by Peter Selinger 2001-2017
</metadata>
<g transform="translate(0.000000,500.000000) scale(0.100000,-0.100000)"
fill="#000000" stroke="none">
<path d="M2158 4507 c-6 -8 -22 -12 -34 -9 -14 2 -31 -5 -45 -19 -26 -26 -31
-76 -15 -138 5 -22 5 -31 -2 -27 -6 3 -13 20 -17 36 -6 28 -7 29 -24 12 -10
-9 -23 -36 -30 -60 -9 -31 -17 -42 -29 -40 -11 2 -18 -5 -20 -20 -2 -13 -14
-28 -28 -34 -13 -6 -24 -17 -24 -24 0 -7 -8 -21 -18 -31 -47 -49 -54 -61 -43
-81 8 -16 7 -21 -5 -26 -8 -3 -12 -10 -9 -16 3 -5 1 -10 -4 -10 -6 0 -9 -15
-8 -32 2 -19 -3 -37 -11 -43 -15 -12 -34 -78 -33 -114 1 -13 -4 -30 -9 -37 -8
-8 -8 -14 0 -19 7 -4 7 -12 0 -25 -12 -23 -13 -33 -1 -26 4 3 21 40 36 82 32
86 77 167 118 208 15 15 27 31 27 35 0 16 79 90 133 124 58 38 134 57 207 53
25 -2 47 -4 50 -5 3 -1 55 -5 115 -7 118 -5 209 -18 253 -37 62 -27 160 -93
183 -123 85 -112 109 -144 109 -150 0 -3 9 -18 19 -33 35 -48 61 -145 61 -223
0 -71 1 -74 34 -100 46 -37 59 -36 51 2 -4 17 -2 30 3 30 10 0 7 135 -4 205
-3 22 -6 53 -5 68 0 16 -6 30 -14 34 -8 3 -15 18 -15 33 0 37 -9 60 -24 60 -6
0 -13 12 -14 26 -1 14 -9 32 -17 40 -8 9 -18 26 -21 40 -3 13 -10 24 -14 24
-4 0 -26 30 -49 68 -46 75 -85 122 -100 122 -6 0 -8 -7 -5 -15 10 -26 -22 -7
-35 21 -6 13 -22 29 -35 34 -13 5 -68 30 -120 55 -133 64 -206 85 -318 95 -53
4 -101 11 -107 14 -22 14 -81 16 -93 3z m-64 -83 c5 -14 4 -15 -9 -4 -17 14
-19 20 -6 20 5 0 12 -7 15 -16z"/>
<path d="M2617 3797 c-18 -6 -27 -15 -25 -25 3 -13 13 -15 53 -12 28 2 68 3
90 2 52 -2 87 6 80 18 -4 6 -10 8 -15 5 -5 -3 -20 0 -32 7 -27 15 -113 18
-151 5z"/>
<path d="M1950 3669 c-54 -13 -70 -25 -70 -51 0 -14 5 -18 19 -13 17 5 20 -2
31 -65 13 -79 24 -95 78 -110 50 -13 199 -13 262 2 46 11 53 16 80 63 18 32
27 59 24 72 -4 15 0 25 14 32 29 15 72 -2 72 -29 0 -25 43 -111 63 -129 22
-18 184 -35 260 -27 87 10 107 26 122 102 8 45 17 61 34 69 15 7 21 17 19 35
-5 40 -67 53 -243 53 -114 0 -161 -4 -194 -17 -56 -21 -148 -21 -197 1 -47 20
-304 28 -374 12z m356 -25 c39 -19 39 -19 37 -73 -3 -72 -28 -112 -78 -128
-50 -14 -208 -16 -257 -3 -47 13 -58 33 -65 118 -5 57 -3 69 13 83 29 25 49
28 185 25 99 -2 134 -7 165 -22z m554 3 c23 -11 25 -19 28 -85 5 -118 -14
-133 -173 -134 -123 0 -181 15 -201 53 -18 36 -18 48 1 23 14 -19 14 -19 15 2
0 12 -9 33 -20 47 -36 45 -25 74 35 95 44 15 284 15 315 -1z"/>
<path d="M2104 3650 c-17 -5 -39 -19 -49 -30 -18 -19 -18 -20 1 -20 11 0 27 9
37 20 23 27 44 25 43 -2 -1 -19 5 -24 33 -26 20 -2 37 2 42 10 7 10 9 10 9 1
0 -7 7 -13 15 -13 42 0 -18 59 -66 65 -19 2 -48 0 -65 -5z"/>
<path d="M2643 3635 c-17 -7 -36 -22 -41 -32 -9 -16 -5 -18 49 -20 53 -2 59 0
59 17 0 22 15 27 26 9 3 -6 1 -15 -6 -19 -8 -5 10 -10 41 -12 30 -2 56 -3 58
-1 12 9 -39 45 -82 58 -61 18 -63 18 -104 0z"/>
<path d="M1772 3530 c-22 -21 -30 -60 -13 -60 8 0 51 64 51 76 0 10 -18 3 -38
-16z"/>
<path d="M3046 3488 c8 -78 18 -101 28 -64 5 22 10 25 31 20 22 -5 25 -3 25
19 0 18 -11 34 -32 50 -61 45 -60 45 -52 -25z"/>
<path d="M1700 3389 c-12 -21 -6 -69 8 -69 13 0 45 68 38 79 -11 18 -34 13
-46 -10z"/>
<path d="M3122 3388 c-16 -16 -15 -28 1 -28 16 0 47 -61 47 -92 0 -20 1 -21
20 -3 20 18 26 66 14 113 -5 17 -14 22 -38 22 -18 0 -37 -5 -44 -12z"/>
<path d="M2292 3348 c-23 -23 -14 -48 16 -48 69 0 95 27 47 48 -33 15 -48 15
-63 0z"/>
<path d="M2485 3348 c-50 -28 -35 -48 38 -48 35 0 49 4 54 16 13 34 -50 56
-92 32z"/>
<path d="M3069 3314 c-9 -11 -9 -18 -1 -26 7 -7 12 -25 12 -41 0 -24 4 -28 23
-25 32 4 34 42 4 78 -22 25 -27 27 -38 14z"/>
<path d="M2415 3290 c-8 -12 20 -24 35 -15 5 3 10 10 10 16 0 12 -37 12 -45
-1z"/>
<path d="M2395 3130 c-27 -4 -81 -15 -120 -23 -38 -9 -79 -14 -91 -11 -24 6
-42 -12 -27 -27 5 -5 30 -12 56 -15 43 -6 47 -5 47 14 0 27 30 33 149 32 124
-2 164 -8 157 -26 -7 -19 44 -19 89 0 25 11 33 19 29 31 -5 12 -14 15 -31 10
-13 -3 -47 1 -75 10 -54 16 -100 17 -183 5z"/>
<path d="M2525 3070 c-3 -5 1 -10 10 -10 9 0 13 5 10 10 -3 6 -8 10 -10 10 -2
0 -7 -4 -10 -10z"/>
<path d="M2690 2725 c-52 -22 -61 -23 -168 -14 -94 8 -120 7 -160 -6 -81 -27
-77 -24 -57 -39 10 -7 15 -18 11 -24 -4 -6 4 -18 17 -27 13 -8 38 -35 56 -60
27 -37 30 -48 21 -65 -9 -17 -8 -27 4 -45 14 -21 20 -23 47 -15 18 5 36 7 41
4 5 -4 24 7 41 23 18 17 41 33 52 37 19 7 19 8 3 20 -17 12 -17 14 0 32 9 10
31 20 47 22 18 2 43 17 64 38 18 19 37 34 41 34 4 0 12 18 19 41 7 23 15 47
18 55 8 21 -32 16 -97 -11z"/>
<path d="M2936 2371 c8 -37 -26 -149 -66 -217 -56 -99 -188 -207 -327 -268
-175 -77 -386 -60 -509 41 -42 34 -44 38 -44 88 0 76 -12 175 -21 175 -4 0
-13 -25 -19 -56 -11 -52 -7 -115 8 -139 4 -6 -1 -2 -11 9 -18 20 -18 20 -13
-5 3 -13 8 -42 11 -63 6 -36 5 -38 -9 -27 -13 11 -16 11 -16 1 0 -24 -9 -4
-24 51 -9 35 -15 45 -15 28 -1 -15 6 -44 15 -65 11 -26 13 -39 5 -42 -6 -2
-11 -9 -11 -15 -1 -10 -70 -51 -70 -41 0 2 10 22 21 44 12 23 19 43 16 47 -8
8 -47 -56 -54 -90 -3 -15 -13 -33 -23 -40 -14 -9 -266 -245 -303 -283 -5 -5
-6 2 -3 16 3 14 8 50 11 81 6 56 6 57 -24 67 -16 6 -32 7 -36 4 -3 -4 -22 -5
-41 -3 -36 3 -164 -52 -164 -70 0 -5 -11 -15 -25 -21 -13 -6 -27 -19 -30 -28
-3 -10 -15 -20 -27 -23 -19 -5 -20 -11 -15 -56 6 -50 -4 -68 -18 -33 -6 15 -8
14 -16 -7 -6 -14 -8 -30 -5 -37 3 -8 0 -11 -8 -8 -8 3 -22 -4 -33 -15 -23 -25
-37 -17 -59 34 -10 24 -19 34 -22 26 -5 -14 13 -109 29 -148 4 -12 8 -52 8
-88 -1 -62 -2 -66 -22 -63 -14 2 -36 24 -57 56 -24 36 -36 48 -38 37 -2 -9 8
-35 23 -57 15 -22 21 -37 14 -33 -9 6 -10 3 -6 -8 22 -54 22 -53 3 -38 -9 8
-26 31 -37 50 l-20 36 6 -35 c3 -19 18 -48 33 -64 15 -17 19 -24 10 -17 -23
18 -23 0 0 -30 12 -16 17 -35 14 -59 -2 -19 -4 -50 -4 -67 1 -38 -19 -43 -58
-16 -28 19 -40 35 -57 78 l-11 30 -1 -29 c-1 -35 36 -86 92 -127 43 -31 44
-40 1 -12 l-26 17 27 -55 c70 -140 69 -138 30 -153 -16 -6 -17 -9 -5 -16 10
-6 7 -10 -16 -15 -72 -16 -78 -24 -14 -19 81 6 112 -8 116 -52 l4 -31 -95 -13
c-53 -7 -98 -17 -101 -22 -11 -18 3 -18 42 -2 86 36 325 2 415 -59 36 -25 40
-42 27 -119 l-7 -38 50 0 c45 0 49 2 49 24 0 13 6 29 14 35 7 6 17 38 20 71 4
33 11 60 16 60 12 0 23 -37 15 -51 -4 -5 0 -18 8 -27 25 -29 49 -83 43 -98 -4
-12 23 -14 167 -14 125 0 177 4 186 13 11 9 13 9 7 -1 -6 -9 194 -12 983 -12
l991 0 0 23 c0 31 -25 194 -50 330 -13 75 -17 115 -10 127 31 59 213 117 465
149 144 19 133 12 139 83 5 45 1 88 -13 148 -10 47 -35 161 -55 255 -21 93
-44 183 -51 199 -8 16 -15 37 -15 47 0 21 -68 206 -95 260 -47 92 -168 211
-197 193 -7 -4 -8 -3 -4 4 4 7 3 12 -3 12 -5 0 -13 -4 -16 -10 -12 -19 -71
-39 -135 -45 -92 -8 -97 -8 -120 8 -20 14 -20 15 -3 23 10 4 38 13 62 18 l43
11 -18 23 c-17 20 -34 25 -144 36 -69 7 -135 18 -145 23 -11 6 -60 21 -110 33
-83 21 -247 78 -287 100 -10 6 -25 10 -33 10 -8 0 -15 4 -15 9 0 14 -65 81
-78 81 -7 0 -9 -11 -6 -29z m-943 -562 c38 -22 66 -43 64 -45 -3 -3 -20 4 -38
15 -39 24 -62 28 -33 6 17 -13 15 -14 -33 -15 -47 0 -74 -12 -60 -27 5 -4 63
-9 142 -13 6 0 17 -4 24 -9 12 -8 11 -13 -10 -30 -13 -11 -30 -20 -36 -21 -7
0 -13 -4 -13 -10 0 -5 -9 -10 -20 -10 -11 0 -23 -7 -26 -15 -4 -8 -12 -15 -18
-15 -7 0 -50 -19 -97 -42 -46 -22 -92 -42 -102 -43 -9 -1 -27 -11 -40 -22 -12
-11 -46 -34 -75 -52 -110 -69 -193 -180 -268 -360 -10 -24 -20 -39 -22 -33 -5
15 71 173 122 251 25 40 46 74 46 78 0 3 38 63 85 133 73 111 136 181 192 213
12 7 7 -19 -12 -65 -4 -10 -4 -18 -1 -18 10 0 53 94 49 107 -2 6 8 18 24 26
23 11 32 12 53 1 41 -22 53 -16 23 11 -23 20 -25 24 -10 25 10 0 15 5 12 10
-11 18 8 11 78 -31z m1337 -49 c27 -52 52 -129 48 -142 -4 -12 -41 59 -69 135
-21 57 -7 62 21 7z m-1224 -16 c18 -14 18 -14 -6 -3 -31 14 -36 19 -24 19 6 0
19 -7 30 -16z m956 -25 c-21 -8 -30 10 -11 22 8 5 16 3 21 -4 4 -7 0 -15 -10
-18z m-437 -85 c-3 -28 -13 -73 -21 -99 -8 -27 -12 -50 -10 -52 8 -9 -29 -43
-46 -43 -10 0 -18 -4 -18 -10 0 -5 7 -10 16 -10 33 0 6 -23 -28 -24 -21 -1
-33 3 -28 8 5 5 6 15 3 22 -3 8 1 14 8 14 8 0 5 6 -7 15 -15 11 -16 15 -4 16
8 1 20 2 25 4 6 1 14 3 19 3 5 1 3 9 -4 17 -10 12 -10 15 2 15 13 0 45 82 69
180 11 43 12 44 21 20 5 -14 7 -48 3 -76z m450 -1 c-4 -38 -11 -70 -15 -73 -4
-3 -10 -16 -11 -30 -3 -19 -11 -26 -34 -30 -20 -4 -26 -8 -17 -13 9 -6 9 -13
1 -28 -6 -12 -13 -18 -16 -15 -11 11 -43 -15 -43 -34 0 -12 -7 -20 -16 -20
-10 0 -14 -7 -11 -17 4 -22 -20 -73 -35 -73 -6 0 -9 -2 -6 -5 3 -3 41 10 84
29 117 51 193 78 207 73 6 -2 -15 -18 -48 -35 -34 -16 -119 -64 -190 -106 -71
-42 -139 -77 -150 -77 -35 -2 -50 2 -62 17 -6 9 -15 14 -19 12 -4 -2 -9 7 -10
20 -2 12 1 22 6 22 6 0 10 -6 11 -12 0 -7 5 -2 10 11 13 32 49 81 59 81 5 0 7
-13 4 -30 -8 -37 13 -48 57 -30 39 17 32 23 -9 8 -35 -14 -47 -8 -38 19 5 15
14 18 47 15 45 -5 74 12 49 28 -10 7 -11 10 -2 10 6 0 12 7 12 15 0 12 -8 14
-32 10 -18 -3 -38 -11 -45 -17 -7 -6 -13 -7 -13 -3 0 4 -8 1 -17 -6 -9 -8 -14
-9 -10 -3 4 7 -5 14 -23 18 -32 6 -41 26 -12 26 9 0 28 10 42 21 l25 20 -32
-6 c-29 -6 -32 -4 -26 11 4 10 2 15 -3 11 -14 -8 -38 9 -30 22 4 6 17 11 29
12 18 0 19 2 5 7 -12 5 -14 12 -9 21 5 8 14 10 21 6 9 -5 11 -4 6 3 -4 7 -1
12 6 12 11 0 11 2 0 9 -16 10 -13 137 3 134 6 -2 10 -12 10 -23 0 -10 8 -27
18 -37 17 -17 18 -17 12 2 -6 16 -5 17 4 5 6 -8 11 -23 11 -32 0 -9 5 -29 12
-45 6 -15 11 -31 10 -34 0 -3 6 -6 14 -6 8 0 14 8 14 18 0 9 7 19 15 23 9 3
15 18 15 35 0 23 4 29 15 25 9 -4 14 -13 13 -22 -3 -16 28 -26 38 -11 3 5 -2
9 -11 9 -9 0 -15 6 -12 13 2 6 14 11 26 10 11 -2 21 2 21 7 0 6 -6 10 -12 11
-7 0 -3 4 10 9 13 6 28 23 33 40 7 20 18 30 31 30 19 0 20 -4 13 -67z m-599
21 c-16 -15 -106 -194 -106 -210 -1 -25 -83 -90 -100 -79 -20 12 -2 51 49 108
14 15 21 27 17 27 -12 0 56 92 104 141 25 25 46 42 48 37 2 -4 -4 -15 -12 -24z
m-346 -35 c0 -32 -341 -308 -381 -309 -9 0 -19 -6 -22 -13 -8 -21 -76 -38
-101 -25 -12 6 -22 12 -24 13 -7 6 19 55 27 51 13 -9 41 4 41 19 0 7 9 11 23
8 15 -3 36 9 69 39 26 24 69 54 95 68 26 14 53 28 58 32 29 22 146 98 171 111
35 19 44 21 44 6z m140 1 c0 -5 -5 -10 -11 -10 -5 0 -7 5 -4 10 3 6 8 10 11
10 2 0 4 -4 4 -10z m-30 -19 c0 -5 -7 -12 -16 -15 -14 -5 -15 -4 -4 9 14 17
20 19 20 6z m-40 -40 c0 -4 -31 -41 -70 -82 -38 -40 -70 -69 -70 -65 0 5 -9 1
-20 -9 -26 -24 -26 -4 0 21 11 10 32 31 47 47 14 15 33 27 41 27 9 0 12 3 9 7
-4 3 7 19 23 35 31 29 40 34 40 19z m-760 -170 c-5 -11 -15 -23 -21 -27 -6 -3
-3 5 6 20 20 30 30 35 15 7z m800 -21 c0 -5 -4 -10 -9 -10 -6 0 -13 5 -16 10
-3 6 1 10 9 10 9 0 16 -4 16 -10z m710 0 c0 -5 -7 -7 -15 -4 -8 4 -15 8 -15
10 0 2 7 4 15 4 8 0 15 -4 15 -10z m-200 -44 c0 -2 -7 -9 -15 -16 -13 -11 -14
-10 -9 4 5 14 24 23 24 12z m-560 -22 c0 -3 -6 -11 -12 -17 -17 -16 -68 -21
-68 -7 0 6 4 9 9 6 5 -3 11 1 15 9 5 14 56 22 56 9z m-614 -19 c-3 -9 0 -15 9
-15 24 0 95 -31 95 -42 0 -5 -4 -7 -9 -4 -5 3 -11 -8 -15 -24 -4 -21 -11 -30
-25 -30 -11 0 -23 -4 -26 -10 -3 -5 3 -10 14 -10 12 0 21 -7 21 -15 0 -8 -4
-15 -8 -15 -20 0 -173 -122 -196 -157 -34 -49 -33 -33 0 25 22 37 24 44 9 38
-15 -5 -16 -2 -11 26 4 18 8 42 9 53 1 12 11 34 22 50 11 17 22 35 25 42 5 12
83 102 89 103 2 0 1 -7 -3 -15z m835 -10 c5 4 6 -1 2 -10 -5 -13 -7 -14 -14
-3 -5 7 -8 18 -8 23 0 6 3 4 6 -3 2 -6 9 -10 14 -7z m-1406 -657 c6 -4 2 -8
-7 -8 -10 0 -18 7 -18 17 0 9 3 12 8 7 4 -5 12 -12 17 -16z"/>
<path d="M1710 1670 c-6 -12 -9 -24 -7 -27 3 -2 11 5 17 17 6 12 9 24 7 27 -3
2 -11 -5 -17 -17z"/>
<path d="M3017 1634 c-10 -11 -9 -54 2 -54 15 0 18 13 12 38 -3 13 -9 20 -14
16z"/>
<path d="M3018 1542 c-17 -7 -16 -8 2 -20 17 -11 20 -10 20 8 0 11 -1 20 -2
19 -2 0 -11 -4 -20 -7z"/>
<path d="M2970 1480 c0 -6 7 -10 15 -10 8 0 15 2 15 4 0 2 -7 6 -15 10 -8 3
-15 1 -15 -4z"/>
<path d="M2906 1445 c-3 -8 -1 -15 4 -15 13 0 22 18 11 24 -5 3 -11 -1 -15 -9z"/>
<path d="M1692 1327 c-6 -7 -7 -18 -3 -25 6 -10 11 -10 21 3 7 8 20 15 29 15
14 0 14 2 1 10 -21 13 -36 12 -48 -3z"/>
<path d="M1461 1133 c-7 -8 -11 -16 -8 -19 2 -2 10 2 17 11 17 20 9 27 -9 8z"/>
<path d="M1839 2043 c-8 -10 -21 -27 -29 -38 -15 -20 -15 -20 9 0 21 18 47 55
38 55 -2 0 -10 -8 -18 -17z"/>
<path d="M1738 1948 c-63 -75 -69 -90 -14 -38 47 45 72 78 63 86 -2 3 -24 -19
-49 -48z"/>
<path d="M1816 1940 c-10 -17 -16 -34 -13 -37 8 -7 40 44 35 57 -2 6 -12 -3
-22 -20z"/>
</g>
</svg>
